<mxfile host="65bd71144e">
    <diagram id="XXd6pPZVZHxNrgmQ0Vfv" name="Page-1">
        <mxGraphModel dx="1733" dy="1113" grid="0" gridSize="10" guides="1" tooltips="1" connect="1" arrows="1" fold="1" page="0" pageScale="1" pageWidth="850" pageHeight="1100" math="0" shadow="0">
            <root>
                <mxCell id="0"/>
                <mxCell id="1" parent="0"/>
                <mxCell id="2" value="TourBloc" style="shape=umlLifeline;perimeter=lifelinePerimeter;whiteSpace=wrap;html=1;container=1;collapsible=0;recursiveResize=0;outlineConnect=0;rounded=1;shadow=0;comic=0;labelBackgroundColor=none;strokeWidth=1;fontFamily=Verdana;fontSize=12;align=center;" parent="1" vertex="1">
                    <mxGeometry x="356" y="70" width="100" height="494" as="geometry"/>
                </mxCell>
                <mxCell id="3" value="" style="html=1;points=[];perimeter=orthogonalPerimeter;rounded=0;shadow=0;comic=0;labelBackgroundColor=none;strokeWidth=1;fontFamily=Verdana;fontSize=12;align=center;" parent="2" vertex="1">
                    <mxGeometry x="45" y="170" width="10" height="220" as="geometry"/>
                </mxCell>
                <mxCell id="8" value="eco_city_tour_repository" style="shape=umlLifeline;perimeter=lifelinePerimeter;whiteSpace=wrap;html=1;container=1;collapsible=0;recursiveResize=0;outlineConnect=0;rounded=1;shadow=0;comic=0;labelBackgroundColor=none;strokeWidth=1;fontFamily=Verdana;fontSize=12;align=center;" parent="1" vertex="1">
                    <mxGeometry x="508" y="70" width="179" height="501" as="geometry"/>
                </mxCell>
                <mxCell id="70" value="" style="html=1;points=[];perimeter=orthogonalPerimeter;rounded=0;shadow=0;comic=0;labelBackgroundColor=none;strokeWidth=1;fontFamily=Verdana;fontSize=12;align=center;" parent="8" vertex="1">
                    <mxGeometry x="84.5" y="206" width="10" height="123" as="geometry"/>
                </mxCell>
                <mxCell id="10" value="TourSummaryScreen" style="shape=umlLifeline;perimeter=lifelinePerimeter;whiteSpace=wrap;html=1;container=1;collapsible=0;recursiveResize=0;outlineConnect=0;rounded=1;shadow=0;comic=0;labelBackgroundColor=none;strokeWidth=1;fontFamily=Verdana;fontSize=12;align=center;" parent="1" vertex="1">
                    <mxGeometry x="85" y="72" width="173" height="487" as="geometry"/>
                </mxCell>
                <mxCell id="11" value="" style="html=1;points=[];perimeter=orthogonalPerimeter;rounded=0;shadow=0;comic=0;labelBackgroundColor=none;strokeWidth=1;fontFamily=Verdana;fontSize=12;align=center;" parent="10" vertex="1">
                    <mxGeometry x="81.5" y="99" width="10" height="316" as="geometry"/>
                </mxCell>
                <mxCell id="84" style="edgeStyle=none;html=1;dashed=1;" parent="10" edge="1" target="56">
                    <mxGeometry relative="1" as="geometry">
                        <mxPoint x="-142" y="378" as="targetPoint"/>
                        <mxPoint x="87" y="378" as="sourcePoint"/>
                    </mxGeometry>
                </mxCell>
                <mxCell id="85" value="CustomSnackbar.show&lt;br&gt;(context, &lt;br&gt;'Ruta guardada exitosamente');" style="edgeLabel;html=1;align=center;verticalAlign=middle;resizable=0;points=[];" parent="84" vertex="1" connectable="0">
                    <mxGeometry x="-0.455" relative="1" as="geometry">
                        <mxPoint x="-36" y="-26" as="offset"/>
                    </mxGeometry>
                </mxCell>
                <mxCell id="57" style="edgeStyle=none;html=1;" parent="1" source="56" target="10" edge="1">
                    <mxGeometry relative="1" as="geometry">
                        <Array as="points">
                            <mxPoint x="120" y="171"/>
                        </Array>
                    </mxGeometry>
                </mxCell>
                <mxCell id="58" value="button.onPressed()" style="edgeLabel;html=1;align=center;verticalAlign=middle;resizable=0;points=[];" parent="57" vertex="1" connectable="0">
                    <mxGeometry x="0.0547" y="1" relative="1" as="geometry">
                        <mxPoint x="-34" y="-9" as="offset"/>
                    </mxGeometry>
                </mxCell>
                <mxCell id="88" style="edgeStyle=none;html=1;entryX=0.4;entryY=0.022;entryDx=0;entryDy=0;entryPerimeter=0;fontSize=11;" edge="1" parent="1" source="56" target="3">
                    <mxGeometry relative="1" as="geometry"/>
                </mxCell>
                <mxCell id="89" value="&lt;span style=&quot;font-family: Verdana;&quot;&gt;saveCurrentTour(state.ecoCityTour)&lt;/span&gt;" style="edgeLabel;html=1;align=center;verticalAlign=middle;resizable=0;points=[];fontSize=11;" vertex="1" connectable="0" parent="88">
                    <mxGeometry x="-0.7908" relative="1" as="geometry">
                        <mxPoint x="62" y="-12" as="offset"/>
                    </mxGeometry>
                </mxCell>
                <mxCell id="56" value="Usuario" style="shape=umlLifeline;participant=umlActor;perimeter=lifelinePerimeter;whiteSpace=wrap;html=1;container=1;collapsible=0;recursiveResize=0;verticalAlign=bottom;spacingTop=36;outlineConnect=0;labelPosition=center;verticalLabelPosition=top;align=center;" parent="1" vertex="1">
                    <mxGeometry x="-26" y="60" width="23" height="507" as="geometry"/>
                </mxCell>
                <mxCell id="82" value="A02 - CloudFirestore" style="shape=umlLifeline;participant=umlActor;perimeter=lifelinePerimeter;whiteSpace=wrap;html=1;container=1;collapsible=0;recursiveResize=0;verticalAlign=bottom;spacingTop=36;outlineConnect=0;labelPosition=center;verticalLabelPosition=top;align=center;" parent="1" vertex="1">
                    <mxGeometry x="997" y="72" width="20" height="490" as="geometry"/>
                </mxCell>
                <mxCell id="96" value="" style="html=1;points=[];perimeter=orthogonalPerimeter;rounded=0;shadow=0;comic=0;labelBackgroundColor=none;strokeWidth=1;fontFamily=Verdana;fontSize=12;align=center;" vertex="1" parent="82">
                    <mxGeometry x="5" y="244.5" width="10" height="39.5" as="geometry"/>
                </mxCell>
                <mxCell id="86" style="edgeStyle=none;html=1;" edge="1" parent="1" target="56">
                    <mxGeometry relative="1" as="geometry">
                        <mxPoint x="166.5" y="217" as="sourcePoint"/>
                        <mxPoint x="13" y="217" as="targetPoint"/>
                    </mxGeometry>
                </mxCell>
                <mxCell id="87" value="AlertDialog(&quot;nombre?&quot;)" style="edgeLabel;html=1;align=center;verticalAlign=middle;resizable=0;points=[];" vertex="1" connectable="0" parent="86">
                    <mxGeometry x="-0.329" y="-3" relative="1" as="geometry">
                        <mxPoint x="-10" y="-7" as="offset"/>
                    </mxGeometry>
                </mxCell>
                <mxCell id="90" value="firestore_dataset" style="shape=umlLifeline;perimeter=lifelinePerimeter;whiteSpace=wrap;html=1;container=1;collapsible=0;recursiveResize=0;outlineConnect=0;rounded=1;shadow=0;comic=0;labelBackgroundColor=none;strokeWidth=1;fontFamily=Verdana;fontSize=12;align=center;" vertex="1" parent="1">
                    <mxGeometry x="742" y="70" width="142" height="501" as="geometry"/>
                </mxCell>
                <mxCell id="91" value="" style="html=1;points=[];perimeter=orthogonalPerimeter;rounded=0;shadow=0;comic=0;labelBackgroundColor=none;strokeWidth=1;fontFamily=Verdana;fontSize=12;align=center;" vertex="1" parent="90">
                    <mxGeometry x="66" y="232" width="10" height="76" as="geometry"/>
                </mxCell>
                <mxCell id="92" style="edgeStyle=none;html=1;entryX=0.35;entryY=0;entryDx=0;entryDy=0;entryPerimeter=0;fontSize=11;" edge="1" parent="1" source="3" target="70">
                    <mxGeometry relative="1" as="geometry"/>
                </mxCell>
                <mxCell id="93" value="saveTour(state,tourName)" style="edgeLabel;html=1;align=center;verticalAlign=middle;resizable=0;points=[];fontSize=11;" vertex="1" connectable="0" parent="92">
                    <mxGeometry x="-0.6757" y="-1" relative="1" as="geometry">
                        <mxPoint x="37" y="-11" as="offset"/>
                    </mxGeometry>
                </mxCell>
                <mxCell id="94" style="edgeStyle=none;html=1;entryX=0.529;entryY=-0.003;entryDx=0;entryDy=0;entryPerimeter=0;fontSize=11;" edge="1" parent="1" source="70" target="91">
                    <mxGeometry relative="1" as="geometry"/>
                </mxCell>
                <mxCell id="95" value="saveTour(tour,tourName)" style="edgeLabel;html=1;align=center;verticalAlign=middle;resizable=0;points=[];fontSize=11;" vertex="1" connectable="0" parent="94">
                    <mxGeometry x="-0.7675" y="-1" relative="1" as="geometry">
                        <mxPoint x="39" y="-10" as="offset"/>
                    </mxGeometry>
                </mxCell>
                <mxCell id="97" style="edgeStyle=none;html=1;entryX=0.165;entryY=-0.001;entryDx=0;entryDy=0;entryPerimeter=0;fontSize=11;" edge="1" parent="1" source="91" target="96">
                    <mxGeometry relative="1" as="geometry"/>
                </mxCell>
                <mxCell id="98" value="firestore.collection('tours').&lt;br&gt;doc(tourName).set(tourData);" style="edgeLabel;html=1;align=center;verticalAlign=middle;resizable=0;points=[];fontSize=11;" vertex="1" connectable="0" parent="97">
                    <mxGeometry x="-0.6635" y="-1" relative="1" as="geometry">
                        <mxPoint x="45" y="-19" as="offset"/>
                    </mxGeometry>
                </mxCell>
                <mxCell id="99" style="edgeStyle=none;html=1;fontSize=11;dashed=1;" edge="1" parent="1">
                    <mxGeometry relative="1" as="geometry">
                        <mxPoint x="1005" y="356" as="sourcePoint"/>
                        <mxPoint x="812.3235294117644" y="355.5" as="targetPoint"/>
                    </mxGeometry>
                </mxCell>
                <mxCell id="101" style="edgeStyle=none;html=1;dashed=1;fontSize=11;" edge="1" parent="1">
                    <mxGeometry relative="1" as="geometry">
                        <mxPoint x="808" y="371" as="sourcePoint"/>
                        <mxPoint x="596.8235294117649" y="371" as="targetPoint"/>
                    </mxGeometry>
                </mxCell>
                <mxCell id="103" style="edgeStyle=none;html=1;dashed=1;fontSize=11;" edge="1" parent="1">
                    <mxGeometry relative="1" as="geometry">
                        <mxPoint x="592.5" y="397" as="sourcePoint"/>
                        <mxPoint x="405.6666666666665" y="397" as="targetPoint"/>
                    </mxGeometry>
                </mxCell>
                <mxCell id="106" style="edgeStyle=none;html=1;dashed=1;fontSize=11;" edge="1" parent="1" target="10">
                    <mxGeometry relative="1" as="geometry">
                        <mxPoint x="402.43" y="432.0000000000002" as="sourcePoint"/>
                        <mxPoint x="216.00142857142822" y="432.0000000000002" as="targetPoint"/>
                    </mxGeometry>
                </mxCell>
            </root>
        </mxGraphModel>
    </diagram>
</mxfile>